<svg xmlns="http://www.w3.org/2000/svg" viewBox="0 0 32 32">
  <circle cx="16" cy="16" r="16" fill="#26A17B"/>
  <path fill="#ffffff" d="M16 6c-5.523 0-10 1.119-10 2.5 0 1.381 4.477 2.5 10 2.5s10-1.119 10-2.5C26 7.119 21.523 6 16 6zm0 3c-4.418 0-8-.448-8-1s3.582-1 8-1 8 .448 8 1-3.582 1-8 1z"/>
  <rect x="15" y="9" width="2" height="12" fill="#ffffff"/>
  <path fill="#ffffff" d="M16 21c-5.523 0-10-1.119-10-2.5S10.477 16 16 16s10 1.119 10 2.5S21.523 21 16 21zm0-3c-4.418 0-8 .448-8 1s3.582 1 8 1 8-.448 8-1-3.582-1-8-1z"/>
</svg>